<svg xmlns="http://www.w3.org/2000/svg" width="14" height="14" viewBox="0 0 14 14" fill="none">
<path fill-rule="evenodd" clip-rule="evenodd" d="M4.33301 3.00016H2.99967V2.3335H1.66634V4.3335H12.333V2.3335H10.9997V3.00016H9.66634V2.3335H4.33301V3.00016ZM12.333 5.66683H1.66634V12.3335H12.333V5.66683ZM9.66634 1.00016H4.33301V0.333496H2.99967V1.00016H1.66634C0.929961 1.00016 0.333008 1.59712 0.333008 2.3335V12.3335C0.333008 13.0699 0.929961 13.6668 1.66634 13.6668H12.333C13.0694 13.6668 13.6663 13.0699 13.6663 12.3335V2.3335C13.6663 1.59712 13.0694 1.00016 12.333 1.00016H10.9997V0.333496H9.66634V1.00016ZM4.99967 8.3335H3.66634V7.00016H4.99967V8.3335ZM6.33301 8.3335H7.66634V7.00016H6.33301V8.3335ZM8.99967 8.3335V7.00016H10.333V8.3335H8.99967ZM3.66634 11.0002H4.99967V9.66683H3.66634V11.0002ZM7.66634 11.0002H6.33301V9.66683H7.66634V11.0002Z" fill="#D13980"/>
</svg>