<svg xmlns="http://www.w3.org/2000/svg" width="14" height="14" fill="none" viewBox="0 0 14 14"><path fill="#d13980" fill-rule="evenodd" d="M4.333 3H3v-.667H1.667v2h10.667v-2H11V3H9.667v-.667H4.333Zm8 2.667H1.666v6.667h10.667ZM9.666 1H4.333V.333H3V1H1.667C.93 1 .332 1.597.332 2.334v10c0 .736.597 1.333 1.333 1.333h10.667c.736 0 1.333-.597 1.333-1.333v-10c0-.737-.597-1.334-1.333-1.334H11V.333H9.667ZM5 8.334H3.667V7H5Zm1.333 0h1.333V7H6.333Zm2.667 0V7h1.333v1.333ZM3.666 11H5V9.667H3.667Zm4 0H6.333V9.667h1.333Z" clip-rule="evenodd"/></svg>