<svg xmlns="http://www.w3.org/2000/svg" width="16" height="16" viewBox="0 0 16 16" fill="none">
<path d="M5.64323 7.52855L3.75738 9.4144C2.97664 10.1954 2.97664 11.4618 3.75738 12.2428C4.53835 13.0238 5.80474 13.0236 6.58581 12.2428L8.47165 10.357L9.41492 11.3002L7.52908 13.1861C6.22731 14.4876 4.11647 14.4871 2.8148 13.1854C1.51336 11.8837 1.51336 9.77351 2.8148 8.47182L4.70065 6.58597L5.64323 7.52855ZM8.47165 2.81497C9.77333 1.5133 11.8842 1.51276 13.1859 2.81428C14.4877 4.11602 14.4877 6.22749 13.1859 7.52924L11.3008 9.4144L10.3575 8.47113L12.2427 6.58597C13.0237 5.80492 13.0237 4.53859 12.2427 3.75754C11.4616 2.97673 10.1952 2.97657 9.41423 3.75754L7.52908 5.6427L6.5865 4.70012L8.47165 2.81497ZM10.8291 6.11434L6.11486 10.8286L5.17228 9.88603L9.88656 5.17176L10.8291 6.11434Z" fill="#2E2E54"/>
</svg>