<svg width="16" height="16" viewBox="0 0 16 16" fill="none" xmlns="http://www.w3.org/2000/svg">
<path fill-rule="evenodd" clip-rule="evenodd" d="M12.667 3.33333C13.4034 3.33333 14.0003 3.93029 14.0003 4.66667V5.33333C14.7367 5.33333 15.3337 5.93029 15.3337 6.66667L15.3178 6.81129L13.9976 12.7519C13.9537 13.4486 13.3747 14 12.667 14H2.00033C1.26395 14 0.666992 13.403 0.666992 12.6667V3.33333C0.666992 2.59695 1.26395 2 2.00033 2H6.00033C6.74699 2 7.22228 2.31697 7.69964 2.91924C7.71285 2.93589 7.74502 2.97735 7.78065 3.02327L7.78071 3.02335C7.83102 3.08818 7.88821 3.16188 7.90865 3.18721C7.92932 3.21284 7.94674 3.23403 7.96114 3.25154C8.01978 3.32285 8.02827 3.33319 8.00152 3.33333H12.667ZM12.667 4.66667V5.33333H3.33366C2.55592 5.33333 2.20713 5.74764 2.01974 6.50694L2.00033 6.59431V3.33333H6.00033C6.25649 3.33333 6.40501 3.43238 6.65472 3.74744C6.66257 3.75733 6.68504 3.7863 6.71305 3.8224L6.7131 3.82248L6.71316 3.82255C6.76674 3.89162 6.84051 3.98672 6.87088 4.02436C7.20612 4.43994 7.51799 4.66409 7.99676 4.66666L12.667 4.66667ZM12.667 12.6667H2.01659L3.31778 6.81129C3.3336 6.74753 3.34745 6.6997 3.35786 6.66667H13.9841L12.6829 12.522L12.667 12.6667Z" fill="#D2D4D8"/>
</svg>
