<svg width="10" height="10" viewBox="0 0 10 10" fill="none" xmlns="http://www.w3.org/2000/svg">
<path fill-rule="evenodd" clip-rule="evenodd" d="M10 4.99951C10 4.15827 9.4348 3.49951 8.5 3.49951H6.96349L6.9774 3.46165C6.99129 3.42407 7.03045 3.32086 7.06848 3.22063C7.10215 3.13188 7.13494 3.04546 7.14854 3.00896C7.24361 2.75379 7.31298 2.54819 7.36911 2.34458C7.45395 2.03683 7.5 1.75957 7.5 1.49951C7.5 0.763508 7.04593 0.306371 6.37414 0.110755C6.07114 0.0225257 5.8074 -0.000534287 5.5 -0.000488212H5.26025L5.11014 0.186454C4.94057 0.397626 4.60751 0.778205 4.22354 1.21697L4.22352 1.21699L4.2235 1.21701C3.51513 2.02647 2.63345 3.03396 2.28518 3.54121C2.19481 3.51437 2.09909 3.49996 2 3.49996H1C0.447715 3.49996 0 3.94767 0 4.49996V8.99996C0 9.55224 0.447715 9.99996 1 9.99996H2C2.34356 9.99996 2.64666 9.8267 2.82668 9.5628C2.97837 9.6609 3.14761 9.74279 3.33156 9.8086C3.75272 9.95929 4.17042 10.0056 4.5172 9.99922L8 9.99951C9.37757 9.99951 10 7.9713 10 4.99951ZM3.66844 8.86705C3.22598 8.70875 3 8.45063 3 7.99951V4.49996V4.49951C3 4.37941 3.02222 4.27307 3.07086 4.1595C3.15823 3.95551 3.95097 3.05108 4.70234 2.19385C5.09012 1.75142 5.46689 1.32157 5.72998 1.00708C5.8557 1.01651 5.97419 1.03583 6.09457 1.07088C6.38109 1.15431 6.5 1.27403 6.5 1.49951C6.5 1.6578 6.46797 1.85067 6.40507 2.07881C6.35807 2.2493 6.29721 2.4297 6.21146 2.65984C6.19929 2.69251 6.16893 2.77254 6.13664 2.85764L6.13664 2.85765C6.09729 2.96135 6.05509 3.07257 6.03948 3.11479C5.97446 3.2906 5.93163 3.42004 5.90233 3.53767C5.77777 4.03769 5.90273 4.49951 6.5 4.49951H8.5C8.84561 4.49951 9 4.67946 9 4.99951C9 7.39488 8.50756 8.99951 8 8.99951H4.5L4.48153 8.99982C4.26269 9.00374 3.95531 8.96969 3.66844 8.86705ZM1 8.99996V4.49996H2V8.99996H1Z" fill="white"/>
</svg>
