<svg width="16" height="16" viewBox="0 0 16 16" fill="none" xmlns="http://www.w3.org/2000/svg">
<path d="M3.33301 6.6665C4.06928 6.6665 4.66682 7.26328 4.66699 7.99951C4.66699 8.73589 4.06939 9.3335 3.33301 9.3335C2.59678 9.33332 2 8.73578 2 7.99951C2.00018 7.26339 2.59689 6.66668 3.33301 6.6665ZM8 6.6665C8.73627 6.6665 9.33283 7.26328 9.33301 7.99951C9.33301 8.73589 8.73638 9.3335 8 9.3335C7.26362 9.3335 6.66699 8.73589 6.66699 7.99951C6.66717 7.26328 7.26373 6.6665 8 6.6665ZM12.667 6.6665C13.4031 6.66668 13.9998 7.26339 14 7.99951C14 8.73578 13.4032 9.33332 12.667 9.3335C11.9306 9.3335 11.333 8.73589 11.333 7.99951C11.3332 7.26328 11.9307 6.6665 12.667 6.6665Z" fill="#D2D4D8"/>
</svg>
