<svg width="12" height="12" viewBox="0 0 12 12" fill="none" xmlns="http://www.w3.org/2000/svg">
<path fill-rule="evenodd" clip-rule="evenodd" d="M8.21868 1C8.54604 1 8.85986 1.13071 9.08905 1.36171L10.6395 2.91216C10.8703 3.143 11 3.45608 11 3.78254C11 4.109 10.8703 4.42208 10.6395 4.65292L4.97875 10.3119C4.62951 10.7147 4.13445 10.9623 3.5673 11.0012H1V10.5012L1.00162 8.39365C1.04422 7.86642 1.28933 7.37617 1.66325 7.04671L7.34769 1.36231C7.5782 1.13041 7.89168 1 8.21868 1ZM3.53199 10.0024C3.7991 9.9835 4.04774 9.85919 4.2474 9.63081L8.02835 5.84986L6.15116 3.9726L2.34805 7.77479C2.14548 7.95396 2.02015 8.20462 2 8.43391V10.0015L3.53199 10.0024ZM6.85835 3.26558L8.73546 5.14275L9.9324 3.94581C9.9757 3.90251 10 3.84378 10 3.78254C10 3.7213 9.9757 3.66257 9.9324 3.61927L8.38056 2.06743C8.33774 2.02427 8.27947 2 8.21868 2C8.15788 2 8.09961 2.02427 8.05679 2.06743L6.85835 3.26558Z" fill="white"/>
</svg>
