<svg width="16" height="16" viewBox="0 0 16 16" fill="none" xmlns="http://www.w3.org/2000/svg">
<path d="M8 1.3335C11.6817 1.33367 14.667 4.3187 14.667 8.00049C14.6669 9.14991 14.3747 10.2583 13.8281 11.2397L14.0635 14.064L11.2393 13.8286C10.2578 14.3752 9.14942 14.6674 8 14.6675C4.31821 14.6675 1.33318 11.6822 1.33301 8.00049C1.33301 4.31859 4.3181 1.3335 8 1.3335ZM8 2.66748C5.05448 2.66748 2.66699 5.05497 2.66699 8.00049C2.66717 10.9459 5.05459 13.3335 8 13.3335C8.98078 13.3334 9.92162 13.0695 10.7432 12.5757L10.9277 12.4644L12.6035 12.604L12.4639 10.9282L12.5752 10.7437C13.069 9.92211 13.3329 8.98127 13.333 8.00049C13.333 5.05508 10.9454 2.66766 8 2.66748ZM8 9.99951C8.3682 9.99957 8.66688 10.2975 8.66699 10.6655C8.66699 11.0337 8.36826 11.3325 8 11.3325C7.63169 11.3325 7.33301 11.0337 7.33301 10.6655C7.33312 10.2974 7.63176 9.99951 8 9.99951ZM8 4.6665C9.10431 4.66668 9.99982 5.56219 10 6.6665C10 7.35955 9.64349 7.99294 9.06934 8.35693C8.9008 8.46378 8.88023 8.47781 8.81348 8.53076C8.70405 8.61758 8.66602 8.67212 8.66602 8.6665V9.3335H7.33301V8.6665C7.33312 8.17518 7.58804 7.8003 7.98438 7.48584C8.10361 7.39125 8.13982 7.36767 8.35547 7.23096C8.54785 7.109 8.66602 6.89805 8.66602 6.6665C8.66584 6.29857 8.36793 6.00066 8 6.00049C7.63192 6.00049 7.33318 6.29846 7.33301 6.6665H6C6.00018 5.56208 6.89554 4.6665 8 4.6665Z" fill="#D2D4D8"/>
</svg>
