<svg width="16" height="16" viewBox="0 0 16 16" fill="none" xmlns="http://www.w3.org/2000/svg">
<g clip-path="url(#clip0_1372_2866)">
<path d="M14.6458 5.3335H8.6875C8.50516 5.3335 8.3303 5.40373 8.20136 5.52876C8.07243 5.65378 8 5.82335 8 6.00016C8 6.17697 8.07243 6.34654 8.20136 6.47157C8.3303 6.59659 8.50516 6.66683 8.6875 6.66683H14.6458C14.8282 6.66683 15.003 6.59659 15.132 6.47157C15.2609 6.34654 15.3333 6.17697 15.3333 6.00016C15.3333 5.82335 15.2609 5.65378 15.132 5.52876C15.003 5.40373 14.8282 5.3335 14.6458 5.3335Z" fill="#D2D4D8"/>
<path d="M14.613 1.3335H10.053C9.86205 1.3335 9.67892 1.40373 9.54389 1.52876C9.40887 1.65378 9.33301 1.82335 9.33301 2.00016C9.33301 2.17697 9.40887 2.34654 9.54389 2.47157C9.67892 2.59659 9.86205 2.66683 10.053 2.66683H14.613C14.804 2.66683 14.9871 2.59659 15.1221 2.47157C15.2572 2.34654 15.333 2.17697 15.333 2.00016C15.333 1.82335 15.2572 1.65378 15.1221 1.52876C14.9871 1.40373 14.804 1.3335 14.613 1.3335Z" fill="#D2D4D8"/>
<path d="M7.29065 9.3335H1.37667C1.18845 9.3335 1.00794 9.40373 0.874852 9.52876C0.741761 9.65378 0.666992 9.82335 0.666992 10.0002C0.666992 10.177 0.741761 10.3465 0.874852 10.4716C1.00794 10.5966 1.18845 10.6668 1.37667 10.6668H7.29065C7.47887 10.6668 7.65938 10.5966 7.79247 10.4716C7.92556 10.3465 8.00033 10.177 8.00033 10.0002C8.00033 9.82335 7.92556 9.65378 7.79247 9.52876C7.65938 9.40373 7.47887 9.3335 7.29065 9.3335Z" fill="#D2D4D8"/>
<path d="M7.29065 14.6668C7.47887 14.6668 7.65938 14.5966 7.79247 14.4716C7.92556 14.3465 8.00033 14.177 8.00033 14.0002C8.00033 13.8234 7.92556 13.6538 7.79247 13.5288C7.65938 13.4037 7.47887 13.3335 7.29065 13.3335H1.37667C1.18845 13.3335 1.00794 13.4037 0.874852 13.5288C0.741761 13.6538 0.666992 13.8234 0.666992 14.0002C0.666992 14.177 0.741761 14.3465 0.874852 14.4716C1.00794 14.5966 1.18845 14.6668 1.37667 14.6668H7.29065Z" fill="#D2D4D8"/>
<path d="M10.1088 14.3322C10.1676 14.4237 10.2462 14.5009 10.3388 14.5581C10.4315 14.6153 10.5358 14.651 10.6441 14.6627C10.7524 14.6743 10.862 14.6615 10.9647 14.6253C11.0674 14.589 11.1606 14.5303 11.2376 14.4533L12.6649 13.0264L14.0922 14.4509C14.1678 14.5266 14.2591 14.5848 14.3598 14.6212C14.4604 14.6577 14.5679 14.6716 14.6745 14.6618C14.7811 14.6521 14.8843 14.6191 14.9767 14.565C15.069 14.511 15.1483 14.4372 15.2089 14.3491C15.3046 14.1985 15.3446 14.0192 15.322 13.8423C15.2994 13.6654 15.2156 13.5019 15.0851 13.3801L13.6966 11.9992L15.1045 10.5941C15.2276 10.4767 15.3063 10.3206 15.3276 10.152C15.3488 9.98344 15.3112 9.81273 15.221 9.66861C15.1622 9.57707 15.0836 9.49986 14.991 9.44266C14.8984 9.38546 14.794 9.34973 14.6857 9.33811C14.5774 9.32648 14.4679 9.33926 14.3651 9.3755C14.2624 9.41173 14.1692 9.4705 14.0922 9.54748L12.6649 10.972L11.2376 9.54748C11.162 9.47176 11.0707 9.41359 10.97 9.37713C10.8694 9.34066 10.7619 9.32679 10.6553 9.33651C10.5487 9.34622 10.4455 9.37928 10.3531 9.43334C10.2608 9.48739 10.1815 9.56111 10.1209 9.64923C10.0252 9.79985 9.98524 9.9791 10.0078 10.156C10.0304 10.3329 10.1142 10.4964 10.2447 10.6183L11.6357 11.9992L10.2375 13.4043C10.1119 13.5203 10.0304 13.6761 10.007 13.8453C9.98353 14.0144 10.0195 14.1865 10.1088 14.3322Z" fill="#D2D4D8"/>
<path d="M0.865799 4.74408L2.17197 6.22356C2.4229 6.5074 2.76302 6.66683 3.11765 6.66683C3.47228 6.66683 3.81241 6.5074 4.06333 6.22356L7.0979 2.78636C7.17067 2.70955 7.22905 2.61692 7.26953 2.514C7.31002 2.41108 7.33179 2.29998 7.33354 2.18732C7.3353 2.07466 7.317 1.96276 7.27975 1.85829C7.24249 1.75382 7.18704 1.65891 7.1167 1.57924C7.04636 1.49957 6.96258 1.43676 6.87034 1.39456C6.77811 1.35236 6.67931 1.33164 6.57985 1.33363C6.48039 1.33561 6.3823 1.36027 6.29144 1.40613C6.20058 1.45199 6.1188 1.5181 6.05098 1.60054L3.11765 4.92307L1.91271 3.55826C1.77229 3.41005 1.58657 3.32937 1.39467 3.3332C1.20276 3.33704 1.01967 3.42509 0.88395 3.57882C0.748233 3.73254 0.670493 3.93993 0.667108 4.1573C0.663722 4.37466 0.734954 4.58503 0.865799 4.74408Z" fill="#D2D4D8"/>
</g>
<defs>
<clipPath id="clip0_1372_2866">
<rect width="16" height="16" fill="white"/>
</clipPath>
</defs>
</svg>
