<svg width="16" height="16" viewBox="0 0 16 16" fill="none" xmlns="http://www.w3.org/2000/svg">
<path d="M10 0.666504C10.7361 0.66668 11.3328 1.26339 11.333 1.99951V2.6665H13.333C14.0691 2.66668 14.6668 3.26339 14.667 3.99951V5.33252C14.667 6.06879 14.0692 6.66633 13.333 6.6665H13.2803L12.667 13.9995C12.667 14.7358 12.0692 15.3323 11.333 15.3325H4.66699C3.93077 15.3325 3.33381 14.736 3.33594 14.0552L2.71973 6.6665H2.66699C1.93061 6.6665 1.33301 6.0689 1.33301 5.33252V3.99951C1.33318 3.26328 1.93072 2.6665 2.66699 2.6665H4.66699V1.99951C4.66717 1.26328 5.26373 0.666504 6 0.666504H10ZM4.66699 13.9995H11.333L11.3359 13.9438L11.9424 6.6665H4.05762L4.66699 13.9995ZM2.66699 5.33252H13.333V3.99951H2.66699V5.33252ZM6 2.6665H10V1.99951H6V2.6665Z" fill="#D2D4D8"/>
</svg>
