<svg width="16" height="16" viewBox="0 0 16 16" fill="none" xmlns="http://www.w3.org/2000/svg">
<path d="M8 0.666504C12.05 0.666504 15.3328 3.94957 15.333 7.99951C15.333 12.0496 12.0501 15.3325 8 15.3325C3.95006 15.3323 0.666992 12.0495 0.666992 7.99951C0.667168 3.94968 3.95017 0.66668 8 0.666504ZM8 11.3335C5.62215 11.3335 4.22096 11.7909 4.02441 12.4917C5.08304 13.4294 6.47459 13.9994 8 13.9995C9.5251 13.9995 10.916 13.429 11.9746 12.4917C11.7776 11.7911 10.3776 11.3335 8 11.3335ZM8 1.99951C4.68655 1.99969 2.00018 4.68606 2 7.99951C2 9.2687 2.3959 10.4451 3.06836 11.4146C3.8193 10.4247 5.58186 9.99955 8 9.99951C10.4181 9.99951 12.1805 10.4249 12.9316 11.4146C13.6042 10.4451 14 9.26883 14 7.99951C13.9998 4.68595 11.3136 1.99951 8 1.99951ZM8 3.99951C9.60928 3.99951 10.6668 5.2806 10.667 6.79932C10.667 8.98573 9.47872 9.99951 8 9.99951C6.50747 9.99936 5.33312 8.95103 5.33301 6.6665C5.33316 5.1706 6.38637 3.99967 8 3.99951ZM8 5.33252C7.15614 5.33266 6.66713 5.87733 6.66699 6.6665C6.66707 8.17888 7.21237 8.66637 8 8.6665C8.78514 8.6665 9.33301 8.19824 9.33301 6.79932C9.33279 5.96652 8.81027 5.33252 8 5.33252Z" fill="#D2D4D8"/>
</svg>
