<svg width="16" height="16" viewBox="0 0 16 16" fill="none" xmlns="http://www.w3.org/2000/svg">
<path d="M8 0.666504C12.05 0.666504 15.3328 3.94957 15.333 7.99951C15.333 12.0496 12.0501 15.3325 8 15.3325C3.95006 15.3323 0.666992 12.0495 0.666992 7.99951C0.667168 3.94968 3.95017 0.66668 8 0.666504ZM8 1.99951C4.68655 1.99969 2.00018 4.68606 2 7.99951C2 11.3131 4.68644 13.9993 8 13.9995C11.3137 13.9995 14 11.3132 14 7.99951C13.9998 4.68595 11.3136 1.99951 8 1.99951ZM11.1387 6.47119L6.66699 10.9429L4.19531 8.47119L5.13867 7.52881L6.66699 9.05713L10.1953 5.52881L11.1387 6.47119Z" fill="#D2D4D8"/>
</svg>
